# xmcd
#
# Track frame offsets:
#	150
#	11589
#	26807
#	41285
#	50803
#	70716
#	80430
#	99107
#	108034
#	131287
#	137365
#	154616
#	161369
#	178433
#	192911
#	206712
#
# Disc length: 2953 seconds
#
# Revision: 1
# Processed by: cddbd v1.5.1PL0 Copyright (c) Steve Scherf et al.
# Submitted via: audiograbber 1.83.01
#
DISCID=c70b8710
DTITLE=Knapp ein Jahr - Sold
DYEAR=1900
DGENRE=Country
TTITLE0=Little Bitty
TTITLE1=If you gonna play in Texas
TTITLE2=Sold
TTITLE3=Square Dance Nr. 1
TTITLE4=One for Rock ´n roll
TTITLE5=Louisiana Saturday Night
TTITLE6=I´ll find if where I can
TTITLE7=Laim-Rock
TTITLE8=Skiffle Medley
TTITLE9=Moik
TTITLE10=The Devil and the Fiddler
TTITLE11=Schottisches
TTITLE12=Leaving on a Jet Plane
TTITLE13=Truck driving Man
TTITLE14=Charly´s Breakdown
TTITLE15=Young enough to know it all
EXTD=
EXTT0=
EXTT1=
EXTT2=
EXTT3=
EXTT4=
EXTT5=
EXTT6=
EXTT7=
EXTT8=
EXTT9=
EXTT10=
EXTT11=
EXTT12=
EXTT13=
EXTT14=
EXTT15=
PLAYORDER=
